<?xml version="1.0" standalone="no"?><!DOCTYPE svg PUBLIC "-//W3C//DTD SVG 1.1//EN" "http://www.w3.org/Graphics/SVG/1.1/DTD/svg11.dtd"><svg t="1624589980143" class="icon" viewBox="0 0 1024 1024" version="1.1" xmlns="http://www.w3.org/2000/svg" p-id="1103" xmlns:xlink="http://www.w3.org/1999/xlink" width="200" height="200"><defs><style type="text/css"></style></defs><path d="M880 535.84a368 368 0 1 0-368 368 368 368 0 0 0 368-368z m-368 293.333333a293.333333 293.333333 0 1 1 293.333333-293.333333 293.653333 293.653333 0 0 1-293.333333 293.333333z" p-id="1104"></path><path d="M106.696205 852.602637m3.771236-3.771236l79.19596-79.19596q3.771236-3.771236 7.542472 0l57.17194 57.171941q3.771236 3.771236 0 7.542472l-79.195959 79.195959q-3.771236 3.771236-7.542472 0l-57.171941-57.17194q-3.771236-3.771236 0-7.542472Z" p-id="1105"></path><path d="M765.890225 830.585513m3.771236-3.771236l57.17194-57.17194q3.771236-3.771236 7.542473 0l79.195959 79.195959q3.771236 3.771236 0 7.542473l-57.17194 57.17194q-3.771236 3.771236-7.542473 0l-79.195959-79.19596q-3.771236-3.771236 0-7.542472Z" p-id="1106"></path><path d="M149.333333 365.28a402.24 402.24 0 0 1 226.56-206.613333 5.333333 5.333333 0 0 0 1.866667-8.96 161.386667 161.386667 0 0 0-237.76 216.533333 5.333333 5.333333 0 0 0 9.333333-0.96zM648.106667 158.666667A402.24 402.24 0 0 1 874.666667 365.28a5.333333 5.333333 0 0 0 9.12 0.96 161.386667 161.386667 0 0 0-237.76-216.533333 5.333333 5.333333 0 0 0 2.08 8.96zM545.546667 523.52a5.333333 5.333333 0 0 1-1.546667-3.786667V334.773333a5.333333 5.333333 0 0 0-5.333333-5.333333H474.666667a5.333333 5.333333 0 0 0-5.333334 5.333333v215.84a5.333333 5.333333 0 0 0 1.546667 3.786667l138.666667 138.666667a5.333333 5.333333 0 0 0 7.573333 0l45.226667-45.226667a5.333333 5.333333 0 0 0 0-7.573333z" p-id="1107"></path></svg>