<?xml version="1.0" standalone="no"?><!DOCTYPE svg PUBLIC "-//W3C//DTD SVG 1.1//EN" "http://www.w3.org/Graphics/SVG/1.1/DTD/svg11.dtd"><svg t="1624590006478" class="icon" viewBox="0 0 1024 1024" version="1.1" xmlns="http://www.w3.org/2000/svg" p-id="1390" xmlns:xlink="http://www.w3.org/1999/xlink" width="200" height="200"><defs><style type="text/css"></style></defs><path d="M940.307692 157.538462H866.461538V83.692308A44.307692 44.307692 0 0 0 822.153846 39.384615H83.692308A44.307692 44.307692 0 0 0 39.384615 83.692308v738.461538A44.307692 44.307692 0 0 0 83.692308 866.461538H157.538462v73.846154A44.307692 44.307692 0 0 0 201.846154 984.615385h738.461538A44.307692 44.307692 0 0 0 984.615385 940.307692V201.846154A44.307692 44.307692 0 0 0 940.307692 157.538462zM157.538462 201.846154V787.692308H118.153846V118.153846h669.538462v39.384616H201.846154A44.307692 44.307692 0 0 0 157.538462 201.846154zM905.846154 905.846154H236.307692V236.307692h669.538462v669.538462z m-118.153846-512H354.461538v39.384615h433.23077v-39.384615z m0 78.769231H354.461538v39.384615h433.23077v-39.384615z m0 78.76923H354.461538v39.384616h433.23077v-39.384616z m0 78.769231H354.461538v39.384616h433.23077v-39.384616z m0 78.769231H354.461538v39.384615h433.23077v-39.384615z" fill="#333333" p-id="1391"></path></svg>