<?xml version="1.0" standalone="no"?><!DOCTYPE svg PUBLIC "-//W3C//DTD SVG 1.1//EN" "http://www.w3.org/Graphics/SVG/1.1/DTD/svg11.dtd"><svg t="1624590000697" class="icon" viewBox="0 0 1024 1024" version="1.1" xmlns="http://www.w3.org/2000/svg" p-id="1251" xmlns:xlink="http://www.w3.org/1999/xlink" width="200" height="200"><defs><style type="text/css"></style></defs><path d="M693.312 172.032A259.584 259.584 0 0 0 513.28 96h-2.56a259.584 259.584 0 0 0-256 256c-0.832 48 12.672 95.168 38.784 135.488L494.976 896h34.112l201.408-408.512c26.176-40.32 39.68-87.488 38.784-135.488a259.52 259.52 0 0 0-75.968-179.968zM507.136 160l5.248 0.64 4.736-0.64a196.8 196.8 0 0 1 188.224 194.368 175.36 175.36 0 0 1-29.888 100.352l-1.28 2.176-1.088 2.24L512 785.856l-161.088-326.4-1.088-2.496-1.28-2.176a175.424 175.424 0 0 1-29.888-100.352A196.736 196.736 0 0 1 507.136 160z m39.168 138.816a64 64 0 1 0-71.104 106.432 64 64 0 0 0 71.04-106.432z m-106.688-53.248a128 128 0 1 1 142.208 212.864A128 128 0 0 1 439.68 245.568z" p-id="1252"></path></svg>