<?xml version="1.0" standalone="no"?><!DOCTYPE svg PUBLIC "-//W3C//DTD SVG 1.1//EN" "http://www.w3.org/Graphics/SVG/1.1/DTD/svg11.dtd"><svg t="1624590018679" class="icon" viewBox="0 0 1024 1024" version="1.1" xmlns="http://www.w3.org/2000/svg" p-id="1533" xmlns:xlink="http://www.w3.org/1999/xlink" width="200" height="200"><defs><style type="text/css"></style></defs><path d="M704 290.56c-11.52 0-21.76 8.96-21.76 21.76 0 11.52 8.96 21.76 21.76 21.76 11.52 0 21.76-8.96 21.76-21.76s-10.24-21.76-21.76-21.76zM512 0c-8.96 0-16.64 7.68-16.64 16.64v119.04c0 8.96 7.68 16.64 16.64 16.64 8.96 0 16.64-7.68 16.64-16.64V16.64C528.64 7.68 520.96 0 512 0z m253.44 258.56c6.4 6.4 17.92 6.4 24.32 0l84.48-84.48c6.4-6.4 6.4-17.92 0-24.32s-17.92-6.4-24.32 0l-84.48 84.48c-6.4 6.4-6.4 17.92 0 24.32z m241.92 236.8h-119.04c-8.96 0-16.64 7.68-16.64 16.64 0 8.96 7.68 16.64 16.64 16.64h119.04c8.96 0 16.64-7.68 16.64-16.64 0-8.96-7.68-16.64-16.64-16.64z m-217.6 270.08c-6.4-6.4-17.92-6.4-24.32 0s-6.4 17.92 0 24.32l84.48 84.48c6.4 6.4 17.92 6.4 24.32 0s6.4-17.92 0-24.32l-84.48-84.48zM512 870.4c-8.96 0-16.64 7.68-16.64 16.64v119.04c0 8.96 7.68 16.64 16.64 16.64 8.96 0 16.64-7.68 16.64-16.64v-119.04c0-8.96-7.68-16.64-16.64-16.64z m-253.44-104.96c-6.4-6.4-17.92-6.4-24.32 0l-84.48 84.48c-6.4 6.4-6.4 17.92 0 24.32s17.92 6.4 24.32 0l84.48-84.48c6.4-6.4 6.4-17.92 0-24.32zM153.6 512c0-8.96-7.68-16.64-16.64-16.64H16.64c-8.96 0-16.64 7.68-16.64 16.64 0 8.96 7.68 16.64 16.64 16.64h119.04c10.24 0 17.92-7.68 17.92-16.64z m20.48-362.24c-6.4-6.4-17.92-6.4-24.32 0s-6.4 17.92 0 24.32l84.48 84.48c6.4 6.4 17.92 6.4 24.32 0s6.4-17.92 0-24.32l-84.48-84.48z" fill="#2c2c2c" p-id="1534"></path><path d="M477.44 808.96C340.48 793.6 230.4 683.52 215.04 546.56c-20.48-180.48 120.32-332.8 296.96-332.8 52.48 0 102.4 14.08 147.2 39.68 7.68 5.12 11.52 15.36 6.4 23.04-5.12 7.68-15.36 11.52-23.04 6.4-39.68-23.04-84.48-34.56-130.56-34.56-151.04 0-272.64 126.72-263.68 279.04 7.68 133.12 116.48 243.2 249.6 249.6 152.32 7.68 279.04-113.92 279.04-263.68 0-51.2-14.08-99.84-40.96-142.08-5.12-7.68-2.56-17.92 5.12-23.04 7.68-5.12 17.92-2.56 23.04 5.12 30.72 47.36 47.36 103.68 47.36 160-1.28 174.08-153.6 316.16-334.08 295.68z" fill="#2c2c2c" p-id="1535"></path></svg>